<?xml version="1.0" encoding="utf-8"?>
<!-- Generator: Adobe Illustrator 21.1.0, SVG Export Plug-In . SVG Version: 6.00 Build 0)  -->
<svg version="1.1" id="Layer_1" xmlns="http://www.w3.org/2000/svg" xmlns:xlink="http://www.w3.org/1999/xlink" x="0px" y="0px"
	 viewBox="0 0 841.9 595.3" style="enable-background:new 0 0 841.9 595.3;" xml:space="preserve">
<style type="text/css">
	.st0{fill:none;stroke:#000000;stroke-width:47.7304;stroke-miterlimit:10;}
	.st1{font-family:'Basicav.2012';}
	.st2{font-size:63.2803px;}
	.st3{font-size:63.2822px;}
	.st4{font-size:63.2849px;}
	.st5{font-size:63.2824px;}
	.st6{font-size:63.2826px;}
	.st7{font-size:63.2825px;}
	.st8{font-size:63.2864px;}
</style>
<g>
	<g>
		<path class="st0" d="M255.9,307.4c0,0,52.2-100.7,183.1-100.7s178.6,100.7,178.6,100.7v3.6c0,0-52.2,100.7-183.1,100.7
			S255.9,311,255.9,311V307.4z"/>
	</g>
	<text transform="matrix(0.7327 -0.6805 0.6805 0.7327 265.927 256.1047)" class="st1 st2">V </text>
	<text transform="matrix(0.9175 -0.3977 0.3977 0.9175 342.129 202.4739)" class="st1 st3">I</text>
	<text transform="matrix(0.9997 -2.607610e-02 2.607610e-02 0.9997 409.335 183.7938)" class="st1 st4">Y</text>
	<text transform="matrix(0.9311 0.3648 -0.3648 0.9311 501.5603 191.2029)" class="st1 st3">A</text>
	<text transform="matrix(1 -5.810166e-03 5.810166e-03 1 414.3927 478.2646)" class="st1 st5">e</text>
	<text transform="matrix(0.9307 0.3658 -0.3658 0.9307 309.5854 449.6531)" class="st1 st6">t</text>
	<text transform="matrix(0.8866 -0.4625 0.4625 0.8866 529.2664 464.0829)" class="st1 st3">A</text>
	<text transform="matrix(0.7388 -0.6739 0.6739 0.7388 606.6291 421.3351)" class="st1 st7">A</text>
	<text transform="matrix(0.772 0.6356 -0.6356 0.772 227.1146 386.7749)" class="st1 st5">A</text>
	<text transform="matrix(0.7095 0.7048 -0.7048 0.7095 580.9216 229.3457)" class="st1 st8">N</text>
</g>
</svg>
