<?xml version="1.0" encoding="utf-8"?>
<!-- Generator: Adobe Illustrator 21.1.0, SVG Export Plug-In . SVG Version: 6.00 Build 0)  -->
<svg version="1.1" id="Layer_1" xmlns="http://www.w3.org/2000/svg" xmlns:xlink="http://www.w3.org/1999/xlink" x="0px" y="0px"
	 viewBox="0 0 841.9 595.3" style="enable-background:new 0 0 841.9 595.3;" xml:space="preserve">
<style type="text/css">
	.st0{display:none;}
	.st1{display:inline;}
	.st2{fill:none;stroke:#000000;stroke-width:47.7304;stroke-miterlimit:10;}
	.st3{font-family:'Basicav.2012';}
	.st4{font-size:63.2803px;}
	.st5{font-size:63.2822px;}
	.st6{font-size:63.2849px;}
	.st7{font-size:63.2824px;}
	.st8{font-size:63.2826px;}
	.st9{font-size:63.2825px;}
	.st10{font-size:63.2864px;}
</style>
<g id="Layer_1_1_" class="st0">
	<g class="st1">
		<g>
			<path class="st2" d="M255.9,307.4c0,0,52.2-100.7,183.1-100.7s178.6,100.7,178.6,100.7v3.6c0,0-52.2,100.7-183.1,100.7
				S255.9,311,255.9,311V307.4z"/>
			<circle class="st2" cx="435" cy="307.2" r="64"/>
			<circle cx="435" cy="307.2" r="5"/>
		</g>
		<text transform="matrix(0.7327 -0.6805 0.6805 0.7327 265.9355 256.1097)" class="st3 st4">V </text>
		<text transform="matrix(0.9175 -0.3977 0.3977 0.9175 342.0926 202.4685)" class="st3 st5">I</text>
		<text transform="matrix(0.9997 -2.607895e-02 2.607895e-02 0.9997 409.3592 183.7713)" class="st3 st6">Y</text>
		<text transform="matrix(0.9311 0.3648 -0.3648 0.9311 501.5624 191.2032)" class="st3 st5">A</text>
		<text transform="matrix(1 -5.810000e-03 5.810000e-03 1 414.3658 478.2394)" class="st3 st7">e</text>
		<text transform="matrix(0.9307 0.3658 -0.3658 0.9307 309.564 449.5887)" class="st3 st8">t</text>
		<text transform="matrix(0.8866 -0.4625 0.4625 0.8866 529.2736 464.0791)" class="st3 st5">A</text>
		<text transform="matrix(0.7388 -0.6739 0.6739 0.7388 606.5823 421.3403)" class="st3 st9">A</text>
		<text transform="matrix(0.772 0.6356 -0.6356 0.772 227.0932 388.7545)" class="st3 st7">A</text>
		<text transform="matrix(0.7095 0.7048 -0.7048 0.7095 580.8835 229.3182)" class="st3 st10">N</text>
	</g>
</g>
<path class="st2" d="M255.9,307.4c0,0,52.2-100.7,183.1-100.7s178.6,100.7,178.6,100.7v3.6c0,0-52.2,100.7-183.1,100.7
	S255.9,311,255.9,311V307.4z"/>
<g>
	<path d="M281.4,241.8c-16.9-6.7-26.5-10.6-29-11.5c-10.9-4.3-16.5-6.5-16.6-6.6l11.2-10.4l23.4,9.2c0,0-1.2-4.1-3.7-12.3
		c-2.4-7.3-3.6-11.3-3.7-11.9l11.2-10.4l0.1,0.1c0.6,1.8,3.4,10.8,8.5,27.1c3.7,11.8,5.8,18.4,6.1,19.8L281.4,241.8z"/>
</g>
<g>
	<path d="M337,156.4c0.1,0,0.2,0,0.3,0.1l17.5,40.3c0,0.1,0,0.2-0.1,0.3l-12.4,5.4c-0.1,0.1-0.2,0-0.3-0.1L324.5,162
		c0-0.1,0-0.2,0.1-0.3L337,156.4z"/>
</g>
<g>
	<path d="M421.4,139.1c0.1,0,0.2,0.1,0.2,0.2l0.4,15.9l25.8-0.7l-0.4-15.9c0-0.1,0.1-0.2,0.2-0.2l13-0.3c0.1,0,0.2,0.1,0.2,0.2
		l0.7,27.9c0,0.1-0.1,0.2-0.2,0.2l-19.4,0.5l0.4,15.9c0,0.1-0.1,0.2-0.2,0.2l-12.9,0.3c-0.1,0-0.2-0.1-0.2-0.2l-0.4-15.9l-19.4,0.5
		c-0.1,0-0.2-0.1-0.2-0.2l-0.7-27.9c0-0.1,0.1-0.2,0.2-0.2L421.4,139.1z"/>
</g>
<g>
	<path d="M519.9,181.1l-5.8,14.8c0,0.1-0.1,0.1-0.2,0.1l-12.1-4.7c-0.1-0.1-0.2-0.1-0.1-0.3l16-40.9c0.1-0.1,0.2-0.1,0.3-0.1
		l48.5,19c0.1,0.1,0.2,0.2,0.1,0.3l-16,40.9c0,0.1-0.1,0.1-0.3,0.1l-12.1-4.7c-0.1,0-0.1-0.1-0.1-0.2l5.8-14.8L519.9,181.1z
		 M524.3,169.9l24,9.4l1.5-3.8l-24-9.4L524.3,169.9z"/>
</g>
<g>
	<path d="M414.1,434.1c0-0.1,0.1-0.2,0.2-0.2l52.1-0.3c0.1,0,0.2,0.1,0.2,0.2l0.1,11.7c0,0.1-0.1,0.2-0.2,0.2l-38.9,0.2v4.1
		l38.9-0.2c0.1,0,0.2,0.1,0.2,0.2l0.1,11.7c0,0.1-0.1,0.2-0.2,0.2l-38.9,0.2v4l38.9-0.2c0.1,0,0.2,0.1,0.2,0.2l0.1,11.7
		c0,0.1-0.1,0.2-0.2,0.2l-52.1,0.3c-0.1,0-0.2-0.1-0.2-0.2L414.1,434.1z"/>
</g>
<g>
	<path d="M339.1,429l-17.6-6.9c-0.1-0.1-0.2-0.1-0.1-0.3l4.4-11.2c0.1-0.1,0.2-0.1,0.3-0.1l48.5,19.1c0.1,0.1,0.1,0.1,0.1,0.2
		l-4.4,11.2c0,0.1-0.1,0.1-0.2,0.1l-17.7-7l-11.6,29.5c0,0.1-0.1,0.1-0.3,0.1l-12.7-5c-0.1-0.1-0.2-0.1-0.1-0.3L339.1,429z"/>
</g>
<g>
	<path d="M533.7,443.6l7.3,14.1c0.1,0.1,0,0.2-0.1,0.2l-11.5,6c-0.1,0.1-0.2,0-0.3-0.1l-20.3-39c0-0.1,0-0.2,0.1-0.3l46.2-24.1
		c0.1,0,0.2,0,0.3,0.1l20.3,39c0.1,0.1,0,0.2-0.1,0.3l-11.5,6c-0.1,0.1-0.2,0-0.2-0.1l-7.3-14.1L533.7,443.6z M528.1,432.9L551,421
		l-1.9-3.6l-22.8,11.9L528.1,432.9z"/>
</g>
<g>
	<path d="M605.6,400.5l10.7,11.7c0.1,0.1,0.1,0.2,0,0.3l-9.6,8.7c-0.1,0.1-0.2,0.1-0.3,0l-29.6-32.5c-0.1-0.1-0.1-0.2,0-0.3
		l38.5-35.1c0.1-0.1,0.2-0.1,0.3,0l29.6,32.5c0.1,0.1,0.1,0.2,0,0.3l-9.6,8.7c-0.1,0.1-0.2,0.1-0.3,0l-10.7-11.7L605.6,400.5z
		 M597.5,391.5l19-17.4l-2.7-3l-19,17.4L597.5,391.5z"/>
</g>
<g>
	<path d="M247.6,387l-10.1,12.3c-0.1,0.1-0.2,0.1-0.3,0l-10-8.2c-0.1-0.1-0.1-0.2,0-0.3l27.9-33.9c0.1-0.1,0.2-0.1,0.3,0l40.2,33.1
		c0.1,0.1,0.1,0.2,0,0.3l-27.9,33.9c-0.1,0.1-0.2,0.1-0.3,0l-10-8.2c-0.1-0.1-0.1-0.2,0-0.3l10.1-12.3L247.6,387z M255.3,377.6
		l19.9,16.4l2.6-3.1l-19.9-16.4L255.3,377.6z"/>
</g>
<g>
	<path d="M649.2,234.7c0.1,0.1,0.1,0.2,0,0.3l-30.9,31.2c-0.1,0.1-0.2,0.1-0.3,0l-9.2-9.1c-0.1-0.1-0.1-0.2,0-0.3l22.5-22.6L613,216
		l-22.5,22.6c-0.1,0.1-0.2,0.1-0.3,0l-9.2-9.1c-0.1-0.1-0.1-0.2,0-0.3l31-31.2c0.1-0.1,0.2-0.1,0.3,0L649.2,234.7z"/>
</g>
</svg>
