<?xml version="1.0" encoding="utf-8"?>
<!-- Generator: Adobe Illustrator 21.1.0, SVG Export Plug-In . SVG Version: 6.00 Build 0)  -->
<svg version="1.1" id="Layer_1" xmlns="http://www.w3.org/2000/svg" xmlns:xlink="http://www.w3.org/1999/xlink" x="0px" y="0px"
	 viewBox="0 0 841.9 595.3" style="enable-background:new 0 0 841.9 595.3;" xml:space="preserve">
<style type="text/css">
	.st0{fill:none;stroke:#000000;stroke-width:47.7304;stroke-miterlimit:10;}
	.st1{enable-background:new    ;}
</style>
<g>
	<g>
		<path class="st0" d="M255.9,307.4c0,0,52.2-100.7,183.1-100.7s178.6,100.7,178.6,100.7v3.6c0,0-52.2,100.7-183.1,100.7
			S255.9,311,255.9,311V307.4z"/>
	</g>
	<g class="st1">
		<path d="M281.3,241.8c-16.9-6.7-26.5-10.6-29-11.5c-10.9-4.3-16.5-6.5-16.6-6.6l11.2-10.4l23.4,9.2c0,0-1.2-4.1-3.7-12.3
			c-2.4-7.3-3.6-11.3-3.6-11.9l11.2-10.4l0.1,0.1c0.6,1.8,3.4,10.8,8.5,27c3.7,11.8,5.8,18.4,6.1,19.7L281.3,241.8z"/>
	</g>
	<g class="st1">
		<path d="M337.1,156.4c0.1,0,0.2,0,0.3,0.1l17.5,40.3c0,0.1,0,0.2-0.1,0.3l-12.4,5.4c-0.1,0.1-0.2,0-0.3-0.1L324.6,162
			c0-0.1,0-0.2,0.1-0.3L337.1,156.4z"/>
	</g>
	<g class="st1">
		<path d="M421.4,139.2c0.1,0,0.2,0.1,0.2,0.2l0.4,15.9l25.8-0.7l-0.4-15.9c0-0.1,0.1-0.2,0.2-0.2l13-0.3c0.1,0,0.2,0.1,0.2,0.2
			l0.7,27.9c0,0.1-0.1,0.2-0.2,0.2l-19.4,0.5l0.4,15.9c0,0.1-0.1,0.2-0.2,0.2l-12.9,0.3c-0.1,0-0.2-0.1-0.2-0.2l-0.4-15.9l-19.4,0.5
			c-0.1,0-0.2-0.1-0.2-0.2l-0.7-27.9c0-0.1,0.1-0.2,0.2-0.2L421.4,139.2z"/>
	</g>
	<g class="st1">
		<path d="M519.9,181.1l-5.8,14.8c0,0.1-0.1,0.2-0.2,0.1l-12.1-4.7c-0.1-0.1-0.2-0.1-0.1-0.3l16-40.9c0.1-0.1,0.2-0.1,0.3-0.1
			l48.5,19c0.1,0.1,0.2,0.2,0.1,0.3l-16,40.9c0,0.1-0.1,0.1-0.3,0.1l-12.1-4.7c-0.1,0-0.2-0.1-0.1-0.2l5.8-14.8L519.9,181.1z
			 M524.3,169.9l24,9.4l1.5-3.8l-24-9.4L524.3,169.9z"/>
	</g>
	<g class="st1">
		<path d="M414.1,434.1c0-0.1,0.1-0.2,0.2-0.2l52.1-0.3c0.1,0,0.2,0.1,0.2,0.2l0.1,11.7c0,0.1-0.1,0.2-0.2,0.2l-38.9,0.2v4.1
			l38.9-0.2c0.1,0,0.2,0.1,0.2,0.2l0.1,11.7c0,0.1-0.1,0.2-0.2,0.2l-38.9,0.2v4l38.9-0.2c0.1,0,0.2,0.1,0.2,0.2l0.1,11.7
			c0,0.1-0.1,0.2-0.2,0.2l-52.1,0.3c-0.1,0-0.2-0.1-0.2-0.2L414.1,434.1z"/>
	</g>
	<g class="st1">
		<path d="M339.1,427l-17.6-6.9c-0.1-0.1-0.2-0.1-0.1-0.3l4.4-11.2c0.1-0.1,0.2-0.1,0.3-0.1l48.5,19.1c0.1,0.1,0.1,0.1,0.1,0.2
			l-4.4,11.2c0,0.1-0.1,0.1-0.2,0.1l-17.7-7l-11.6,29.5c0,0.1-0.1,0.1-0.3,0.1l-12.7-5c-0.1-0.1-0.2-0.1-0.1-0.3L339.1,427z"/>
	</g>
	<g class="st1">
		<path d="M533.7,443.6l7.3,14.1c0.1,0.1,0,0.2-0.1,0.2l-11.5,6c-0.1,0.1-0.2,0-0.3-0.1l-20.3-39c0-0.1,0-0.2,0.1-0.3l46.2-24.1
			c0.1,0,0.2,0,0.3,0.1l20.3,39c0.1,0.1,0,0.2-0.1,0.3l-11.5,6c-0.1,0.1-0.2,0-0.2-0.1l-7.3-14.1L533.7,443.6z M528.1,432.9L551,421
			l-1.9-3.6l-22.8,11.9L528.1,432.9z"/>
	</g>
	<g class="st1">
		<path d="M605.7,400.4l10.7,11.7c0.1,0.1,0.1,0.2,0,0.3l-9.6,8.7c-0.1,0.1-0.2,0.1-0.3,0l-29.6-32.5c-0.1-0.1-0.1-0.2,0-0.3
			l38.5-35.1c0.1-0.1,0.2-0.1,0.3,0l29.6,32.5c0.1,0.1,0.1,0.2,0,0.3l-9.6,8.7c-0.1,0.1-0.2,0.1-0.3,0L624.7,383L605.7,400.4z
			 M597.5,391.5l19-17.4l-2.7-3l-19,17.4L597.5,391.5z"/>
	</g>
	<g class="st1">
		<path d="M247.7,382.9l-10.1,12.3c-0.1,0.1-0.2,0.1-0.3,0l-10-8.2c-0.1-0.1-0.1-0.2,0-0.3l27.9-33.9c0.1-0.1,0.2-0.1,0.3,0
			l40.2,33.1c0.1,0.1,0.1,0.2,0,0.3L267.8,420c-0.1,0.1-0.2,0.1-0.3,0l-10-8.2c-0.1-0.1-0.1-0.2,0-0.3l10.1-12.3L247.7,382.9z
			 M255.3,373.5l19.9,16.4l2.6-3.1l-19.9-16.4L255.3,373.5z"/>
	</g>
	<g class="st1">
		<path d="M649.3,234.8c0.1,0.1,0.1,0.2,0,0.3l-30.9,31.2c-0.1,0.1-0.2,0.1-0.3,0l-9.2-9.1c-0.1-0.1-0.1-0.2,0-0.3l22.5-22.6
			L613,216l-22.5,22.6c-0.1,0.1-0.2,0.1-0.3,0l-9.2-9.1c-0.1-0.1-0.1-0.2,0-0.3l30.9-31.2c0.1-0.1,0.2-0.1,0.3,0L649.3,234.8z"/>
	</g>
</g>
</svg>
